<svg xmlns="http://www.w3.org/2000/svg" viewBox="0 0 28 22">
  <path fill="#000000" fill-rule="evenodd" d="
    M1.1 13.1
    C2.5 12.3 2.7 10.9 3.1 8.8
    C4.1 3.8 8.2 1.1 14 1.1
    C19.8 1.1 23.9 3.8 24.9 8.8
    C25.3 10.9 25.5 12.3 26.9 13.1
    C24.5 17.8 19.1 20.1 14 20.9
    C8.9 20.1 3.5 17.8 1.1 13.1
    Z

    M7.4 9.7
    A2.2 2.2 0 1 0 11.8 9.7
    A2.2 2.2 0 1 0 7.4 9.7
    Z

    M16.2 9.7
    A2.2 2.2 0 1 0 20.6 9.7
    A2.2 2.2 0 1 0 16.2 9.7
    Z

    M12.4 11.8
    C13 11.3 13.5 11.1 14 11.1
    C14.5 11.1 15 11.3 15.6 11.8
    L14 14.6
    Z"/>
</svg>
